<?xml version="1.0" encoding="UTF-8"?>
<svg id="Layer_1" data-name="Layer 1" xmlns="http://www.w3.org/2000/svg" viewBox="0 0 256 281.78">
  <defs>
    <style>
      .cls-1 {
        fill: #040d09;
      }

      .cls-2 {
        fill: #2a593e;
      }
    </style>
  </defs>
  <path class="cls-1" d="m256,139.92c0,70.88-77.94,179.17-128.04,129.04C0,140.96,0,269.96,0,141.01,0,69.91,78.76-37.31,129.04,12.97c126.96,126.99,126.96.99,126.96,126.95Z"/>
  <path class="cls-2" d="m236.14,166.31h-86.31c-9.87,0-17.87-7.51-17.87-16.78v-60.02c0-4.14-3.32-7.77-7.71-8.03-4.78-.28-8.77,3.29-8.77,7.73v12.42c0,9.27-8,16.78-17.86,16.78h-5.3c-9.87,0-17.86-7.51-17.86-16.78v-12.38c0-4.3-3.71-7.78-8.28-7.78h-5.3c-4.57,0-8.28,3.48-8.28,7.78v60.29c0,9.27-8,16.78-17.86,16.78H4.79c-2.65,0-4.79-2.01-4.79-4.5h0c0-2.49,2.15-4.5,4.79-4.5h29.93c4.57,0,8.28-3.48,8.28-7.78v-60.29c0-9.27,8-16.78,17.86-16.78h5.3c9.87,0,17.86,7.51,17.86,16.78v12.38c0,4.3,3.71,7.78,8.28,7.78h5.3c4.57,0,8.28-3.48,8.28-7.78v-11.91c0-9.95,8.68-17.99,19.25-17.2,9.17.68,16.4,7.91,16.4,16.69v60.32c0,4.3,3.71,7.78,8.28,7.78h86.31c4.57,0,8.28-3.48,8.28-7.78v-7.51c0-4.3-3.71-7.78-8.28-7.78h-53.19c-9.87,0-17.87-7.51-17.87-16.78v-4.98c0-9.27,8-16.78,17.86-16.78h61.47c2.65,0,4.79,2.01,4.79,4.5h0c0,2.49-2.15,4.5-4.79,4.5h-61.47c-4.57,0-8.28,3.48-8.28,7.78v4.98c0,4.3,3.71,7.78,8.28,7.78h53.19c9.87,0,17.86,7.51,17.86,16.78v7.51c0,9.27-8,16.78-17.86,16.78Z"/>
</svg>